<mxfile host="app.diagrams.net" modified="2024-04-11T11:59:29.225Z" agent="Mozilla/5.0 (Windows NT 10.0; Win64; x64; rv:124.0) Gecko/20100101 Firefox/124.0" etag="fpsP-pc_1sq5xu5qrgoJ" version="24.2.0" type="github">
  <diagram name="Page-1" id="9YniTifWULeJlWc_xpeG">
    <mxGraphModel dx="1039" dy="1661" grid="1" gridSize="10" guides="1" tooltips="1" connect="1" arrows="1" fold="1" page="1" pageScale="1" pageWidth="850" pageHeight="1100" math="0" shadow="0">
      <root>
        <mxCell id="0" />
        <mxCell id="1" parent="0" />
        <mxCell id="uND9KHHTo-MgyW-iuIbn-2" value="" style="edgeStyle=orthogonalEdgeStyle;rounded=0;orthogonalLoop=1;jettySize=auto;html=1;" parent="1" source="pZVimZKpDkj4bbfCRo-m-1" target="uND9KHHTo-MgyW-iuIbn-1" edge="1">
          <mxGeometry relative="1" as="geometry" />
        </mxCell>
        <mxCell id="pZVimZKpDkj4bbfCRo-m-1" value="" style="ellipse;" parent="1" vertex="1">
          <mxGeometry x="445" y="-301" width="30" height="30" as="geometry" />
        </mxCell>
        <mxCell id="pZVimZKpDkj4bbfCRo-m-15" value="" style="line;strokeWidth=5;rotatable=0;dashed=0;labelPosition=right;align=left;verticalAlign=middle;spacingTop=0;spacingLeft=6;points=[];portConstraint=eastwest;" parent="1" vertex="1">
          <mxGeometry x="370.5" y="185" width="185" height="10" as="geometry" />
        </mxCell>
        <mxCell id="pZVimZKpDkj4bbfCRo-m-96" style="edgeStyle=orthogonalEdgeStyle;rounded=0;orthogonalLoop=1;jettySize=auto;html=1;entryX=0.5;entryY=0;entryDx=0;entryDy=0;" parent="1" source="pZVimZKpDkj4bbfCRo-m-93" edge="1">
          <mxGeometry relative="1" as="geometry">
            <mxPoint x="690" y="375" as="targetPoint" />
          </mxGeometry>
        </mxCell>
        <mxCell id="pZVimZKpDkj4bbfCRo-m-99" style="edgeStyle=orthogonalEdgeStyle;rounded=0;orthogonalLoop=1;jettySize=auto;html=1;entryX=0.5;entryY=0;entryDx=0;entryDy=0;" parent="1" source="pZVimZKpDkj4bbfCRo-m-93" target="pZVimZKpDkj4bbfCRo-m-98" edge="1">
          <mxGeometry relative="1" as="geometry" />
        </mxCell>
        <mxCell id="pZVimZKpDkj4bbfCRo-m-93" value="запитати юзера чи потрібна йому допомога з вибором " style="rhombus;whiteSpace=wrap;html=1;" parent="1" vertex="1">
          <mxGeometry x="360" y="235" width="230" height="80" as="geometry" />
        </mxCell>
        <mxCell id="pZVimZKpDkj4bbfCRo-m-94" style="edgeStyle=orthogonalEdgeStyle;rounded=0;orthogonalLoop=1;jettySize=auto;html=1;entryX=0.565;entryY=1;entryDx=0;entryDy=0;entryPerimeter=0;" parent="1" source="pZVimZKpDkj4bbfCRo-m-93" target="pZVimZKpDkj4bbfCRo-m-15" edge="1">
          <mxGeometry relative="1" as="geometry" />
        </mxCell>
        <mxCell id="pZVimZKpDkj4bbfCRo-m-107" style="edgeStyle=orthogonalEdgeStyle;rounded=0;orthogonalLoop=1;jettySize=auto;html=1;" parent="1" source="pZVimZKpDkj4bbfCRo-m-98" edge="1">
          <mxGeometry relative="1" as="geometry">
            <mxPoint x="270" y="555" as="targetPoint" />
          </mxGeometry>
        </mxCell>
        <mxCell id="pZVimZKpDkj4bbfCRo-m-98" value="Консультація з ШІ" style="ellipse;whiteSpace=wrap;html=1;" parent="1" vertex="1">
          <mxGeometry x="210" y="375" width="120" height="80" as="geometry" />
        </mxCell>
        <mxCell id="pZVimZKpDkj4bbfCRo-m-100" value="потрібна" style="text;html=1;align=center;verticalAlign=middle;whiteSpace=wrap;rounded=0;" parent="1" vertex="1">
          <mxGeometry x="270" y="245" width="60" height="30" as="geometry" />
        </mxCell>
        <mxCell id="pZVimZKpDkj4bbfCRo-m-101" value="не потрібна" style="text;html=1;align=center;verticalAlign=middle;whiteSpace=wrap;rounded=0;" parent="1" vertex="1">
          <mxGeometry x="603" y="245" width="80" height="30" as="geometry" />
        </mxCell>
        <mxCell id="pZVimZKpDkj4bbfCRo-m-102" value="" style="line;strokeWidth=5;rotatable=0;dashed=0;labelPosition=right;align=left;verticalAlign=middle;spacingTop=0;spacingLeft=6;points=[];portConstraint=eastwest;" parent="1" vertex="1">
          <mxGeometry x="598" y="375" width="185" height="10" as="geometry" />
        </mxCell>
        <mxCell id="pZVimZKpDkj4bbfCRo-m-103" value="пошук кімнати за фільтрами та ключовими словами" style="ellipse;whiteSpace=wrap;html=1;" parent="1" vertex="1">
          <mxGeometry x="520" y="465" width="120" height="80" as="geometry" />
        </mxCell>
        <mxCell id="pZVimZKpDkj4bbfCRo-m-104" value="перегляд повного каталогу" style="ellipse;whiteSpace=wrap;html=1;" parent="1" vertex="1">
          <mxGeometry x="717.5" y="465" width="120" height="80" as="geometry" />
        </mxCell>
        <mxCell id="pZVimZKpDkj4bbfCRo-m-105" style="edgeStyle=orthogonalEdgeStyle;rounded=0;orthogonalLoop=1;jettySize=auto;html=1;exitX=0.768;exitY=1;exitDx=0;exitDy=0;exitPerimeter=0;" parent="1" source="pZVimZKpDkj4bbfCRo-m-102" target="pZVimZKpDkj4bbfCRo-m-104" edge="1">
          <mxGeometry relative="1" as="geometry" />
        </mxCell>
        <mxCell id="pZVimZKpDkj4bbfCRo-m-106" style="edgeStyle=orthogonalEdgeStyle;rounded=0;orthogonalLoop=1;jettySize=auto;html=1;exitX=0.227;exitY=1;exitDx=0;exitDy=0;exitPerimeter=0;" parent="1" source="pZVimZKpDkj4bbfCRo-m-102" target="pZVimZKpDkj4bbfCRo-m-103" edge="1">
          <mxGeometry relative="1" as="geometry" />
        </mxCell>
        <mxCell id="pZVimZKpDkj4bbfCRo-m-129" style="edgeStyle=orthogonalEdgeStyle;rounded=0;orthogonalLoop=1;jettySize=auto;html=1;" parent="1" edge="1">
          <mxGeometry relative="1" as="geometry">
            <mxPoint x="666" y="375" as="targetPoint" />
            <mxPoint x="310" y="595" as="sourcePoint" />
            <Array as="points">
              <mxPoint x="415" y="595" />
              <mxPoint x="415" y="365" />
              <mxPoint x="666" y="365" />
            </Array>
          </mxGeometry>
        </mxCell>
        <mxCell id="pZVimZKpDkj4bbfCRo-m-108" value="чи підійшли юзеру обрані кімнати?" style="rhombus;whiteSpace=wrap;html=1;" parent="1" vertex="1">
          <mxGeometry x="205" y="555" width="130" height="80" as="geometry" />
        </mxCell>
        <mxCell id="pZVimZKpDkj4bbfCRo-m-113" style="edgeStyle=orthogonalEdgeStyle;rounded=0;orthogonalLoop=1;jettySize=auto;html=1;" parent="1" source="pZVimZKpDkj4bbfCRo-m-112" edge="1">
          <mxGeometry relative="1" as="geometry">
            <mxPoint x="270" y="885" as="targetPoint" />
          </mxGeometry>
        </mxCell>
        <mxCell id="pZVimZKpDkj4bbfCRo-m-112" value="бронювання кімнати" style="ellipse;whiteSpace=wrap;html=1;" parent="1" vertex="1">
          <mxGeometry x="210" y="745" width="120" height="80" as="geometry" />
        </mxCell>
        <mxCell id="pZVimZKpDkj4bbfCRo-m-114" value="" style="shape=sumEllipse;perimeter=ellipsePerimeter;html=1;backgroundOutline=1;" parent="1" vertex="1">
          <mxGeometry x="255" y="885" width="30" height="30" as="geometry" />
        </mxCell>
        <mxCell id="pZVimZKpDkj4bbfCRo-m-115" value="" style="line;strokeWidth=5;rotatable=0;dashed=0;labelPosition=right;align=left;verticalAlign=middle;spacingTop=0;spacingLeft=6;points=[];portConstraint=eastwest;" parent="1" vertex="1">
          <mxGeometry x="598" y="635" width="185" height="10" as="geometry" />
        </mxCell>
        <mxCell id="pZVimZKpDkj4bbfCRo-m-116" style="edgeStyle=orthogonalEdgeStyle;rounded=0;orthogonalLoop=1;jettySize=auto;html=1;entryX=0.227;entryY=0;entryDx=0;entryDy=0;entryPerimeter=0;" parent="1" source="pZVimZKpDkj4bbfCRo-m-103" target="pZVimZKpDkj4bbfCRo-m-115" edge="1">
          <mxGeometry relative="1" as="geometry" />
        </mxCell>
        <mxCell id="pZVimZKpDkj4bbfCRo-m-117" style="edgeStyle=orthogonalEdgeStyle;rounded=0;orthogonalLoop=1;jettySize=auto;html=1;entryX=0.659;entryY=0;entryDx=0;entryDy=0;entryPerimeter=0;" parent="1" source="pZVimZKpDkj4bbfCRo-m-104" target="pZVimZKpDkj4bbfCRo-m-115" edge="1">
          <mxGeometry relative="1" as="geometry" />
        </mxCell>
        <mxCell id="pZVimZKpDkj4bbfCRo-m-123" style="edgeStyle=orthogonalEdgeStyle;rounded=0;orthogonalLoop=1;jettySize=auto;html=1;entryX=0.5;entryY=0;entryDx=0;entryDy=0;" parent="1" source="pZVimZKpDkj4bbfCRo-m-119" target="pZVimZKpDkj4bbfCRo-m-122" edge="1">
          <mxGeometry relative="1" as="geometry" />
        </mxCell>
        <mxCell id="pZVimZKpDkj4bbfCRo-m-124" style="edgeStyle=orthogonalEdgeStyle;rounded=0;orthogonalLoop=1;jettySize=auto;html=1;exitX=0;exitY=0.5;exitDx=0;exitDy=0;" parent="1" source="pZVimZKpDkj4bbfCRo-m-119" target="pZVimZKpDkj4bbfCRo-m-130" edge="1">
          <mxGeometry relative="1" as="geometry">
            <mxPoint x="770.5750000000003" y="689.7385714285715" as="sourcePoint" />
            <mxPoint x="375" y="689.71" as="targetPoint" />
            <Array as="points">
              <mxPoint x="480" y="775" />
              <mxPoint x="480" y="645" />
              <mxPoint x="350" y="645" />
            </Array>
          </mxGeometry>
        </mxCell>
        <mxCell id="pZVimZKpDkj4bbfCRo-m-119" value="чи приглянулось щось юзеру?" style="rhombus;whiteSpace=wrap;html=1;" parent="1" vertex="1">
          <mxGeometry x="585.5" y="735" width="210" height="80" as="geometry" />
        </mxCell>
        <mxCell id="pZVimZKpDkj4bbfCRo-m-120" style="edgeStyle=orthogonalEdgeStyle;rounded=0;orthogonalLoop=1;jettySize=auto;html=1;exitX=0.5;exitY=1;exitDx=0;exitDy=0;exitPerimeter=0;" parent="1" source="pZVimZKpDkj4bbfCRo-m-115" target="pZVimZKpDkj4bbfCRo-m-119" edge="1">
          <mxGeometry relative="1" as="geometry" />
        </mxCell>
        <mxCell id="pZVimZKpDkj4bbfCRo-m-122" value="" style="shape=sumEllipse;perimeter=ellipsePerimeter;html=1;backgroundOutline=1;" parent="1" vertex="1">
          <mxGeometry x="920" y="865" width="30" height="30" as="geometry" />
        </mxCell>
        <mxCell id="pZVimZKpDkj4bbfCRo-m-127" value="ні" style="text;html=1;align=center;verticalAlign=middle;whiteSpace=wrap;rounded=0;" parent="1" vertex="1">
          <mxGeometry x="795.5" y="745" width="60" height="30" as="geometry" />
        </mxCell>
        <mxCell id="pZVimZKpDkj4bbfCRo-m-128" value="так" style="text;html=1;align=center;verticalAlign=middle;whiteSpace=wrap;rounded=0;" parent="1" vertex="1">
          <mxGeometry x="510" y="745" width="60" height="30" as="geometry" />
        </mxCell>
        <mxCell id="pZVimZKpDkj4bbfCRo-m-130" value="" style="line;strokeWidth=5;rotatable=0;dashed=0;labelPosition=right;align=left;verticalAlign=middle;spacingTop=0;spacingLeft=6;points=[];portConstraint=eastwest;" parent="1" vertex="1">
          <mxGeometry x="190" y="685" width="185" height="10" as="geometry" />
        </mxCell>
        <mxCell id="pZVimZKpDkj4bbfCRo-m-131" style="edgeStyle=orthogonalEdgeStyle;rounded=0;orthogonalLoop=1;jettySize=auto;html=1;entryX=0.432;entryY=0;entryDx=0;entryDy=0;entryPerimeter=0;" parent="1" source="pZVimZKpDkj4bbfCRo-m-108" target="pZVimZKpDkj4bbfCRo-m-130" edge="1">
          <mxGeometry relative="1" as="geometry" />
        </mxCell>
        <mxCell id="pZVimZKpDkj4bbfCRo-m-133" style="edgeStyle=orthogonalEdgeStyle;rounded=0;orthogonalLoop=1;jettySize=auto;html=1;exitX=0.432;exitY=1;exitDx=0;exitDy=0;exitPerimeter=0;" parent="1" source="pZVimZKpDkj4bbfCRo-m-130" target="pZVimZKpDkj4bbfCRo-m-112" edge="1">
          <mxGeometry relative="1" as="geometry" />
        </mxCell>
        <mxCell id="uND9KHHTo-MgyW-iuIbn-7" value="" style="edgeStyle=orthogonalEdgeStyle;rounded=0;orthogonalLoop=1;jettySize=auto;html=1;" parent="1" source="uND9KHHTo-MgyW-iuIbn-1" target="uND9KHHTo-MgyW-iuIbn-6" edge="1">
          <mxGeometry relative="1" as="geometry" />
        </mxCell>
        <mxCell id="uND9KHHTo-MgyW-iuIbn-1" value="" style="rhombus;whiteSpace=wrap;html=1;" parent="1" vertex="1">
          <mxGeometry x="435" y="-220" width="50" height="50" as="geometry" />
        </mxCell>
        <mxCell id="uND9KHHTo-MgyW-iuIbn-3" value="" style="endArrow=classic;html=1;rounded=0;" parent="1" edge="1">
          <mxGeometry relative="1" as="geometry">
            <mxPoint x="485" y="-195.5" as="sourcePoint" />
            <mxPoint x="700" y="-195" as="targetPoint" />
          </mxGeometry>
        </mxCell>
        <mxCell id="uND9KHHTo-MgyW-iuIbn-4" value="&lt;div&gt;незареєстрований користувач&lt;/div&gt;" style="edgeLabel;resizable=0;html=1;;align=center;verticalAlign=middle;" parent="uND9KHHTo-MgyW-iuIbn-3" connectable="0" vertex="1">
          <mxGeometry relative="1" as="geometry">
            <mxPoint x="2" as="offset" />
          </mxGeometry>
        </mxCell>
        <mxCell id="69oQCE0UNEzGcAP4uinh-1" style="edgeStyle=orthogonalEdgeStyle;rounded=0;orthogonalLoop=1;jettySize=auto;html=1;entryX=1;entryY=0.5;entryDx=0;entryDy=0;" parent="1" source="uND9KHHTo-MgyW-iuIbn-5" target="uND9KHHTo-MgyW-iuIbn-6" edge="1">
          <mxGeometry relative="1" as="geometry">
            <Array as="points">
              <mxPoint x="753" y="-55" />
            </Array>
          </mxGeometry>
        </mxCell>
        <mxCell id="uND9KHHTo-MgyW-iuIbn-5" value="реєстрація в системі" style="ellipse;whiteSpace=wrap;html=1;" parent="1" vertex="1">
          <mxGeometry x="697.5" y="-215" width="110" height="45" as="geometry" />
        </mxCell>
        <mxCell id="uND9KHHTo-MgyW-iuIbn-9" value="" style="edgeStyle=orthogonalEdgeStyle;rounded=0;orthogonalLoop=1;jettySize=auto;html=1;" parent="1" source="uND9KHHTo-MgyW-iuIbn-6" target="uND9KHHTo-MgyW-iuIbn-8" edge="1">
          <mxGeometry relative="1" as="geometry" />
        </mxCell>
        <mxCell id="uND9KHHTo-MgyW-iuIbn-6" value="authentication" style="ellipse;whiteSpace=wrap;html=1;" parent="1" vertex="1">
          <mxGeometry x="415" y="-80" width="90" height="50" as="geometry" />
        </mxCell>
        <mxCell id="uND9KHHTo-MgyW-iuIbn-11" style="edgeStyle=orthogonalEdgeStyle;rounded=0;orthogonalLoop=1;jettySize=auto;html=1;entryX=0;entryY=0.5;entryDx=0;entryDy=0;" parent="1" source="uND9KHHTo-MgyW-iuIbn-8" target="uND9KHHTo-MgyW-iuIbn-1" edge="1">
          <mxGeometry relative="1" as="geometry">
            <Array as="points">
              <mxPoint x="380" y="88" />
              <mxPoint x="380" y="-195" />
            </Array>
          </mxGeometry>
        </mxCell>
        <mxCell id="uND9KHHTo-MgyW-iuIbn-16" style="edgeStyle=orthogonalEdgeStyle;rounded=0;orthogonalLoop=1;jettySize=auto;html=1;exitX=0.5;exitY=1;exitDx=0;exitDy=0;" parent="1" source="uND9KHHTo-MgyW-iuIbn-8" edge="1">
          <mxGeometry relative="1" as="geometry">
            <mxPoint x="459.75" y="185.00000000000023" as="targetPoint" />
            <mxPoint x="459.75" y="130" as="sourcePoint" />
          </mxGeometry>
        </mxCell>
        <mxCell id="uND9KHHTo-MgyW-iuIbn-8" value="" style="rhombus;whiteSpace=wrap;html=1;" parent="1" vertex="1">
          <mxGeometry x="430" y="60" width="60" height="55" as="geometry" />
        </mxCell>
        <mxCell id="uND9KHHTo-MgyW-iuIbn-12" value="&lt;div&gt;неправильні дані&lt;/div&gt;" style="text;html=1;align=center;verticalAlign=middle;whiteSpace=wrap;rounded=0;rotation=90;" parent="1" vertex="1">
          <mxGeometry x="300" y="-30" width="150" height="30" as="geometry" />
        </mxCell>
        <mxCell id="lc78LPeqBxo2bkHGERv3-1" value="&lt;div&gt;ні&lt;/div&gt;" style="text;html=1;align=center;verticalAlign=middle;whiteSpace=wrap;rounded=0;" vertex="1" parent="1">
          <mxGeometry x="335" y="570" width="60" height="30" as="geometry" />
        </mxCell>
        <mxCell id="lc78LPeqBxo2bkHGERv3-2" value="&lt;div&gt;так&lt;/div&gt;" style="text;html=1;align=center;verticalAlign=middle;whiteSpace=wrap;rounded=0;rotation=90;" vertex="1" parent="1">
          <mxGeometry x="252.5" y="635" width="60" height="30" as="geometry" />
        </mxCell>
      </root>
    </mxGraphModel>
  </diagram>
</mxfile>
